<svg width="36" height="48" viewBox="0 0 36 48" fill="none" xmlns="http://www.w3.org/2000/svg">
<path d="M0.192168 29.4529L0.192177 29.4602L0.194305 29.4673C2.73141 37.8658 8.0361 43.8325 16.7749 47.5734C16.8191 47.5923 16.8827 47.621 16.9587 47.6553C16.9818 47.6657 17.006 47.6767 17.0312 47.688C17.1389 47.7365 17.2633 47.792 17.387 47.8444C17.5105 47.8967 17.6342 47.9463 17.7404 47.9829C17.8443 48.0186 17.9387 48.0446 18.0004 48.0446C18.0618 48.0446 18.1562 48.0186 18.2599 47.9829C18.366 47.9464 18.4897 47.8969 18.6132 47.8446C18.7369 47.7922 18.8612 47.7368 18.9689 47.6884C18.9944 47.6769 19.019 47.6658 19.0423 47.6553C19.1179 47.6212 19.1811 47.5927 19.2249 47.574C27.9587 43.8362 33.2733 37.863 35.8056 29.4676L35.8077 29.4605L35.8077 29.4532L35.8319 9.38366V9.3836C35.8319 9.25284 35.8018 9.144 35.7399 9.0554C35.6782 8.96702 35.5879 8.90322 35.4751 8.85689C35.2521 8.7653 34.9293 8.73745 34.5275 8.72956C34.3232 8.72555 34.0969 8.7267 33.85 8.72795C33.1192 8.73166 32.2078 8.73628 31.1504 8.61067C28.3264 8.27523 24.4684 7.01034 20.3414 2.30221C20.0043 1.91769 19.7217 1.58121 19.4797 1.29252L19.4481 1.25482C19.2203 0.983005 19.0285 0.754171 18.8615 0.569325C18.6872 0.376272 18.5378 0.228691 18.4005 0.129256C18.2629 0.0295534 18.1335 -0.0246094 17.9998 -0.0246094C17.8662 -0.0246094 17.7368 0.0295537 17.5991 0.129257C17.4619 0.228692 17.3125 0.376274 17.1382 0.569326C16.9713 0.754164 16.7795 0.982987 16.5517 1.25479L16.5201 1.29252C16.2782 1.58121 15.9955 1.91769 15.6585 2.30221L15.6961 2.33517L15.6585 2.30221C11.5313 7.01048 7.67337 8.27537 4.84953 8.61078C3.79215 8.73637 2.88078 8.73173 2.14997 8.72801C1.90311 8.72675 1.67686 8.7256 1.47254 8.7296C1.07082 8.73748 0.748061 8.76531 0.525073 8.8569C0.412288 8.90323 0.321972 8.96702 0.260226 9.0554C0.198323 9.144 0.168262 9.25284 0.168262 9.3836L0.168262 9.38366L0.192168 29.4529ZM1.3927 29.1993V9.98234L3.23972 9.94125C8.35539 9.82838 12.5948 7.6548 16.58 3.10951L16.5424 3.07654L16.58 3.1095L18.0001 1.48936L19.4202 3.1095L19.4578 3.07654L19.4202 3.10951C23.4053 7.65452 27.6448 9.82838 32.7599 9.94125L34.6069 9.98234V29.1996L34.5263 29.4668C32.1426 37.368 26.9819 42.9217 18.7432 46.4479L18.0004 46.766L17.2567 46.4476C8.80524 42.8295 3.84053 37.2876 1.3927 29.1993Z" fill="white" stroke="white" stroke-width="0.1"/>
<path d="M2.69391 29.0831L2.69392 29.0905L2.69605 29.0975C4.96425 36.6157 9.89406 41.9075 17.7596 45.2743C17.8362 45.307 17.9183 45.3236 18.0004 45.3236H18.0007C18.0827 45.3236 18.1648 45.3071 18.241 45.2742C26.1065 41.908 31.036 36.616 33.3044 29.0978L33.3066 29.0908L33.3066 29.0834L33.3308 11.8298V11.8297C33.3308 11.4971 33.0643 11.2251 32.7317 11.2178C27.2365 11.0961 22.7023 8.78948 18.4604 3.9507C18.227 3.68414 17.7726 3.68414 17.5392 3.9507C13.2973 8.7892 8.76373 11.0958 3.26847 11.2175C2.93559 11.2249 2.66973 11.4965 2.66973 11.8294L2.66973 11.8295L2.69391 29.0831ZM32.1058 28.8295C29.9607 35.8561 25.347 40.835 18.0004 44.0434C10.6541 40.835 6.04006 35.8564 3.89473 28.8295V12.4195C9.22626 12.1465 13.8531 9.80005 18.0004 5.27137C22.1477 9.79978 26.7739 12.1462 32.1058 12.4195V28.8295Z" fill="white" stroke="white" stroke-width="0.1"/>
<path d="M14.382 34.9908L14.3821 34.9909C14.4796 35.0675 14.5945 35.1108 14.7114 35.1205V35.1228H14.7614C14.9453 35.1228 15.1403 35.0329 15.2606 34.8747C15.3826 34.7144 15.425 34.4882 15.3101 34.2245C14.6568 32.2977 15.0954 30.7453 15.8172 29.5945C16.5269 28.4629 17.5107 27.7194 18.0013 27.3945C18.4969 27.7204 19.4919 28.4688 20.2025 29.6124C20.9252 30.7756 21.3543 32.3482 20.6622 34.3066L20.6622 34.3066C20.4602 34.8793 21.1409 35.3685 21.6189 34.9914C25.8854 31.6278 25.916 27.2286 25.3714 23.6867C26.7641 22.6708 27.5839 21.0703 27.5839 19.3283C27.5839 14.5182 21.9281 12.3875 18.6665 15.215C18.3108 15.5233 18.0643 15.5895 17.8411 15.5357C17.7267 15.5081 17.6139 15.448 17.4914 15.3636C17.3881 15.2923 17.2805 15.2057 17.1609 15.1092C17.1385 15.0912 17.1156 15.0727 17.0923 15.054C16.7978 14.8177 16.4355 14.5395 15.925 14.3209C15.4143 14.1022 14.7575 13.9441 13.8738 13.9441C8.54482 13.9441 6.44669 20.6391 10.6295 23.6861C10.0849 27.2281 10.1158 31.6269 14.382 34.9908ZM24.382 22.8774L24.382 22.8774C24.1707 23.0085 24.0595 23.2538 24.1008 23.4988C24.7926 27.6291 24.2277 30.5002 22.2249 32.7544C22.3391 30.7589 21.4427 29.1026 20.4459 27.9395C19.9352 27.3437 19.3973 26.8761 18.9528 26.5572C18.7306 26.3977 18.5311 26.275 18.3696 26.1919C18.2889 26.1503 18.217 26.1183 18.1559 26.0966C18.096 26.0753 18.0427 26.0624 18.0006 26.0624H18.0003C17.9582 26.0624 17.9048 26.0753 17.8448 26.0966C17.7837 26.1183 17.7117 26.1503 17.631 26.1919C17.4694 26.2751 17.2699 26.3978 17.0476 26.5573C16.6031 26.8764 16.0652 27.344 15.5546 27.9399C14.5579 29.103 13.6618 30.7592 13.7759 32.7538C11.7729 30.4994 11.2083 27.6285 11.9001 23.4983C11.9411 23.2532 11.8299 23.0079 11.6189 22.8769L11.6189 22.8769C10.3809 22.1089 9.64203 20.7825 9.64203 19.3281C9.64203 17.4132 10.7532 16.0877 12.1706 15.5044C13.5897 14.9204 15.3122 15.0819 16.5315 16.1402C17.0958 16.6299 17.5519 16.8195 17.9668 16.8183C18.3805 16.8172 18.7424 16.6262 19.1164 16.3812C19.219 16.3139 19.3229 16.2424 19.4295 16.169C20.1023 15.7059 20.8814 15.1694 22.1271 15.1694C26.5063 15.1694 27.8826 20.7069 24.382 22.8774Z" fill="white" stroke="white" stroke-width="0.1"/>
<path d="M15.5311 17.7532L15.5311 17.7532C15.6488 17.6174 15.7667 17.5452 15.8898 17.5269C16.0124 17.5087 16.1309 17.5454 16.247 17.6083C16.3627 17.6709 16.4814 17.7624 16.6049 17.8606C16.6204 17.8729 16.636 17.8853 16.6517 17.8978C16.7623 17.986 16.8782 18.0784 17.0041 18.1638C17.2906 18.3581 17.623 18.5121 18.0393 18.4845C18.4563 18.4568 18.9663 18.2462 19.6055 17.6919L19.6055 17.6919C19.7558 17.5616 19.9211 17.519 20.075 17.54C20.2275 17.5609 20.3652 17.6438 20.4641 17.7579C20.5631 17.8721 20.6256 18.02 20.6246 18.174C20.6236 18.3293 20.5579 18.4868 20.4076 18.6172L20.4076 18.6172C19.5873 19.3281 18.795 19.7326 18.0005 19.7327L15.5311 17.7532ZM15.5311 17.7532C15.4321 17.8674 15.3826 17.9877 15.3772 18.111C15.3719 18.2335 15.4106 18.354 15.4791 18.4689C15.6153 18.6972 15.8748 18.9128 16.1769 19.0978C16.4802 19.2836 16.8318 19.442 17.1586 19.554C17.4842 19.6655 17.7897 19.7327 18.0003 19.7327L15.5311 17.7532Z" fill="white" stroke="white" stroke-width="0.1"/>
</svg>
