<svg width="202" height="44" viewBox="0 0 202 44" fill="none" xmlns="http://www.w3.org/2000/svg">
<rect x="96" y="44" width="96" height="44" transform="rotate(-180 96 44)" fill="white"/>
<path d="M69.6669 22.418C69.6669 23.0508 68.9544 23.5738 68.0299 23.6566L67.7729 23.668L29.8941 23.668C28.8482 23.668 28.0002 23.1083 28.0002 22.418C28.0002 21.7851 28.7127 21.2621 29.6371 21.1794L29.8941 21.168L67.7729 21.168C68.8189 21.168 69.6669 21.7276 69.6669 22.418Z" fill="#011632"/>
<path d="M39.3819 31.6139C39.8711 32.101 39.8728 32.8924 39.3857 33.3816C38.9428 33.8263 38.2485 33.8682 37.7584 33.5061L37.6179 33.3854L27.5346 23.3454C27.0885 22.9013 27.0479 22.2044 27.4128 21.7143L27.5345 21.5739L37.6178 11.5323C38.107 11.0451 38.8984 11.0468 39.3856 11.5359C39.8284 11.9806 39.8674 12.6751 39.5032 13.1637L39.3819 13.3037L30.1885 22.4601L39.3819 31.6139Z" fill="#011632"/>
<rect x="106" width="96" height="44" fill="white"/>
<path d="M132.333 21.582C132.333 20.9492 133.046 20.4262 133.97 20.3434L134.227 20.332L172.106 20.332C173.152 20.332 174 20.8917 174 21.582C174 22.2149 173.287 22.7378 172.363 22.8206L172.106 22.832L134.227 22.832C133.181 22.832 132.333 22.2724 132.333 21.582Z" fill="#011632"/>
<path d="M162.618 12.3861C162.129 11.899 162.127 11.1076 162.614 10.6184C163.057 10.1737 163.752 10.1318 164.242 10.4939L164.382 10.6146L174.465 20.6546C174.911 21.0987 174.952 21.7956 174.587 22.2857L174.466 22.4261L164.382 32.4677C163.893 32.9549 163.102 32.9532 162.614 32.4641C162.172 32.0194 162.133 31.3249 162.497 30.8363L162.618 30.6963L171.811 21.5399L162.618 12.3861Z" fill="#011632"/>
</svg>
